<svg width="100" height="100" viewBox="0 0 100 100" fill="none" xmlns="http://www.w3.org/2000/svg">
<circle cx="50" cy="50" r="50" fill="white"/>
<g clip-path="url(#clip0_5_794)">
<path d="M96.2964 3.70361H3.70386V96.2962H96.2964V3.70361Z" fill="#EFF8FF"/>
<path d="M50.4131 83.3227C74.9425 83.3227 94.8276 63.4377 94.8276 38.9082C94.8276 14.3787 74.9425 -5.50635 50.4131 -5.50635C25.8836 -5.50635 5.99854 14.3787 5.99854 38.9082C5.99854 63.4377 25.8836 83.3227 50.4131 83.3227Z" fill="#EFF8FF"/>
<path d="M50.0476 47.1817C57.2623 47.1817 63.1109 41.3331 63.1109 34.1184C63.1109 26.9038 57.2623 21.0552 50.0476 21.0552C42.833 21.0552 36.9844 26.9038 36.9844 34.1184C36.9844 41.3331 42.833 47.1817 50.0476 47.1817Z" fill="#74D2FB"/>
<path d="M32.386 49.3498C32.0638 49.4978 31.7503 49.6633 31.4368 49.82L18.069 69.5451C18.8876 70.416 19.7323 71.2172 20.6119 72.0097L35.7737 49.6285C34.7695 48.9535 33.487 48.848 32.386 49.3498ZM74.0569 52.1191L52.9733 83.2351C54.5057 83.1356 56.0318 82.9554 57.5453 82.6952L76.9307 54.0873C75.9989 53.3993 75.041 52.7374 74.0569 52.1191ZM78.3154 55.1497L59.975 82.2162C61.7467 81.8172 63.4918 81.3082 65.2002 80.6922L80.9541 57.4314C80.1268 56.6389 79.2298 55.89 78.3154 55.1497ZM69.4326 49.6285L46.703 83.1742C47.8613 83.2612 49.0195 83.3222 50.1865 83.3222H50.8222L72.5416 51.2657C71.5314 50.6648 70.4951 50.1248 69.4326 49.6285ZM19.3056 58.4068L14.5681 65.3737C15.2996 66.3491 16.0573 67.2983 16.8585 68.204L28.1797 51.5618C24.9459 53.4616 21.9644 55.7614 19.3056 58.4068ZM64.3119 50.8041C62.8249 53.3165 60.7282 55.4132 58.2159 56.9002L40.9553 82.373C42.2007 82.6342 43.4547 82.8694 44.7262 83.0261L67.717 49.0624C66.3438 48.9519 65.0259 49.626 64.3119 50.8041ZM44.9526 57.8146L30.7227 78.8111C31.7851 79.3337 32.8563 79.8126 33.9623 80.2481L48.5057 58.79C47.2864 58.6089 46.0934 58.2814 44.9526 57.8146ZM36.9842 50.9086L21.9182 73.1418C22.7891 73.8907 23.7296 74.5961 24.6876 75.2667L39.2136 53.826C38.368 52.9363 37.6206 51.9582 36.9842 50.9086ZM50.6219 58.938H50.5087L35.6518 80.8664C36.7926 81.2583 37.9508 81.624 39.1352 81.9288L55.2027 58.2065C53.7237 58.6895 52.1778 58.9364 50.6219 58.938ZM82.2691 58.6854L68.135 79.5427C70.4743 78.5111 72.7182 77.2755 74.8407 75.8502L84.6814 61.3329C83.8802 60.4185 83.0703 59.5389 82.2691 58.6854ZM40.5112 55.0191L26.1593 76.2334C27.1347 76.8691 28.1362 77.4613 29.1551 77.9751L43.3676 57.0047C42.343 56.4536 41.3847 55.7875 40.5112 55.0191ZM86.7889 64.0674C86.4667 63.6145 86.1184 63.1965 85.7874 62.7611L79.1427 72.5583C82.043 70.0655 84.6126 67.2121 86.7889 64.0674Z" fill="#0066F5"/>
<path d="M14.0369 64.6857C14.211 64.9296 14.3939 65.156 14.5681 65.3911L19.3056 58.4242C17.3625 60.3467 15.5989 62.4426 14.0369 64.6857ZM28.1362 51.5792L16.8149 68.2214C17.2068 68.6743 17.6161 69.0923 18.0254 69.5452L31.4367 49.7939C30.3046 50.36 29.2073 50.9522 28.1362 51.5792ZM36.9842 50.8041C36.6897 50.3286 36.2906 49.9265 35.8172 49.6285L20.6119 72.0097C21.0473 72.4016 21.4828 72.7761 21.9443 73.1418L36.9842 50.9087V50.8041ZM39.2397 53.826L24.7137 75.2667C25.1839 75.5977 25.6716 75.9199 26.1593 76.2334L40.5112 55.0191C40.0651 54.6458 39.6406 54.2475 39.2397 53.826ZM43.3676 57.0482L29.1464 78.0187C29.6689 78.2973 30.1914 78.5586 30.7139 78.8112L44.9439 57.8146C44.4045 57.5889 43.8782 57.333 43.3676 57.0482ZM48.5057 58.79L33.9623 80.2742C34.5196 80.4919 35.077 80.6922 35.6517 80.8925L50.5087 58.9641C49.8381 58.9461 49.1693 58.888 48.5057 58.79ZM55.2026 58.2065L39.1352 81.9289C39.7361 82.0769 40.3457 82.2075 40.9553 82.3382L58.2158 56.8654C57.2635 57.4213 56.2531 57.8711 55.2026 58.2065ZM68.8578 49.3498C68.4976 49.1855 68.1116 49.0853 67.717 49.0537L44.7261 83.0174C45.3793 83.0958 46.0411 83.1481 46.703 83.2003L69.4326 49.6546L68.8578 49.3498ZM72.5416 51.2483L50.8222 83.3048C51.545 83.3048 52.2678 83.3048 52.9732 83.2352L74.0569 52.1192C73.5605 51.8144 73.0467 51.5357 72.5416 51.2483ZM76.9307 54.0873L57.5453 82.6952C58.3639 82.5559 59.1738 82.3991 59.975 82.2162L78.3154 55.1498C77.8625 54.7927 77.401 54.4357 76.9307 54.0873ZM80.9715 57.4314L65.2176 80.6922C66.193 80.3439 67.1596 79.9607 68.1002 79.5427L82.2691 58.6855C81.8163 58.2675 81.3983 57.8407 80.9715 57.4314ZM85.7526 62.7611C85.3781 62.2734 85.0036 61.7945 84.6118 61.3329L74.771 75.8502C76.2902 74.8455 77.7445 73.7461 79.1253 72.5583L85.7526 62.7611Z" fill="#00419E"/>
<path d="M64.8518 64.3809H72.6896V68.082C72.6896 70.0059 71.13 71.5655 69.2061 71.5655H68.3353C66.4114 71.5655 64.8518 70.0059 64.8518 68.082V64.3896V64.3809Z" fill="#74D2FB"/>
</g>
<defs>
<clipPath id="clip0_5_794">
<rect x="3.70386" y="3.70361" width="92.5926" height="92.5926" rx="46.2963" fill="white"/>
</clipPath>
</defs>
</svg>
